<svg width="1920" height="1080" viewBox="0 0 1920 1080" xmlns="http://www.w3.org/2000/svg"><path d="M 0,1080 C 0,1080 0,180 0,180 C 177.46666666666664,204.93333333333334 354.9333333333333,229.86666666666665 545,220 C 735.0666666666667,210.13333333333335 937.7333333333333,165.46666666666667 1169,153 C 1400.2666666666667,140.53333333333333 1660.1333333333332,160.26666666666665 1920,180 C 1920,180 1920,1080 1920,1080 Z" fill="#0003a0" opacity="0.09999999999999999"/><path d="M 0,1080 C 0,1080 0,360 0,360 C 220.13333333333333,384 440.26666666666665,408 630,400 C 819.7333333333333,392 979.0666666666668,352.00000000000006 1189,340 C 1398.9333333333332,327.99999999999994 1659.4666666666667,344 1920,360 C 1920,360 1920,1080 1920,1080 Z" fill="#0003a0" opacity="0.19999999999999998"/><path d="M 0,1080 C 0,1080 0,540 0,540 C 163.2,543.7333333333333 326.4,547.4666666666666 523,549 C 719.6,550.5333333333334 949.5999999999999,549.8666666666667 1188,548 C 1426.4,546.1333333333333 1673.2,543.0666666666666 1920,540 C 1920,540 1920,1080 1920,1080 Z" fill="#0003a0" opacity="0.3"/><path d="M 0,1080 C 0,1080 0,720 0,720 C 248,688.5333333333333 496,657.0666666666666 694,672 C 892,686.9333333333334 1040,748.2666666666668 1236,764 C 1432,779.7333333333332 1676,749.8666666666666 1920,720 C 1920,720 1920,1080 1920,1080 Z" fill="#0003a0" opacity="0.39999999999999997"/><path d="M 0,1080 C 0,1080 0,900 0,900 C 184.2666666666667,899.8666666666667 368.5333333333334,899.7333333333333 557,889 C 745.4666666666666,878.2666666666667 938.1333333333332,856.9333333333333 1166,857 C 1393.8666666666668,857.0666666666667 1656.9333333333334,878.5333333333333 1920,900 C 1920,900 1920,1080 1920,1080 Z" fill="#0003a0" opacity="0.49999999999999994"/></svg>