<?xml version="1.0" encoding="UTF-8" standalone="no"?>
<svg
   viewBox="0 0 1440 320"
   version="1.1"
   id="svg12"
   sodipodi:docname="wave.svg"
   inkscape:version="1.2.2 (732a01da63, 2022-12-09)"
   xmlns:inkscape="http://www.inkscape.org/namespaces/inkscape"
   xmlns:sodipodi="http://sodipodi.sourceforge.net/DTD/sodipodi-0.dtd"
   xmlns="http://www.w3.org/2000/svg"
   xmlns:svg="http://www.w3.org/2000/svg">
  <defs
     id="defs16" />
  <sodipodi:namedview
     id="namedview14"
     pagecolor="#ffffff"
     bordercolor="#000000"
     borderopacity="0.49803922"
     inkscape:showpageshadow="2"
     inkscape:pageopacity="0"
     inkscape:pagecheckerboard="true"
     inkscape:deskcolor="#343434"
     showgrid="false"
     inkscape:zoom="0.88819444"
     inkscape:cx="719.43706"
     inkscape:cy="159.8749"
     inkscape:window-width="1920"
     inkscape:window-height="1057"
     inkscape:window-x="-8"
     inkscape:window-y="-8"
     inkscape:window-maximized="1"
     inkscape:current-layer="svg12" />
  <path
     fill="#0003a0"
     fill-opacity="1"
     d="m 1.6888225,127.06246 48.0000005,-16 c 48,-16.000004 143.999997,-48.000004 239.999997,-21.300004 96,26.300004 192,112.300004 288,128.000004 96,16.3 192,-37.7 288,-69.4 96,-32.3 191.99998,-42.3 287.99998,-26.6 96,16.3 192,58.3 240,80 l 48,21.3 v 96 h -48 c -48,0 -144,0 -240,0 -96,0 -191.99998,0 -287.99998,0 -96,0 -192,0 -288,0 -96,0 -192,0 -288,0 -96,0 -191.999997,0 -239.999997,0 H 1.6888225 Z"
     id="path10" />
</svg>
